# xmcd
#
# Track frame offsets:
#	150
#	17871
#	30213
#	48470
#	57335
#	74767
#	88467
#	104498
#	121536
#	133374
#	147636
#	161964
#	177706
#	193257
#	206101
#	220924
#	235192
#	247054
#	260168
#	272459
#
# Disc length: 3803 seconds
#
# Revision: 1
# Processed by: cddbd v1.5.2PL0 Copyright (c) Steve Scherf et al.
# Submitted via: audiograbber 1.83.01
#
DISCID=4c0ed914
DTITLE=Grupos Montez VS Kpaz - Varios
DYEAR=1900
DGENRE=
TTITLE0=Querido Amigo
TTITLE1=El Federal de Zacatecas
TTITLE2=Al Diablo Con Los Guapos
TTITLE3=Vida Mafiosa
TTITLE4=Un Buen perdedor
TTITLE5=Lastima Es Mi Mujer
TTITLE6=Procuro olvidarte
TTITLE7=Lagrimas Del corazon
TTITLE8=Imposible Olvidarte
TTITLE9=La Imagen Del Malverde
TTITLE10=Mi Credo
TTITLE11=Hoy Empieza Mi Tristeza
TTITLE12=Volvere
TTITLE13=Lagrimas De Cristal
TTITLE14=Pero Te vas Arrepentir
TTITLE15=Como En Los Buenos Tiempos
TTITLE16=Jambalaya
TTITLE17=De Durango Hasta Chicago
TTITLE18=No Volvere
TTITLE19=Dos Gallos De Oro
EXTD=
EXTT0=
EXTT1=
EXTT2=
EXTT3=
EXTT4=
EXTT5=
EXTT6=
EXTT7=
EXTT8=
EXTT9=
EXTT10=
EXTT11=
EXTT12=
EXTT13=
EXTT14=
EXTT15=
EXTT16=
EXTT17=
EXTT18=
EXTT19=
PLAYORDER=
